<!DOCTYPE svg PUBLIC "-//W3C//DTD SVG 20010904//EN" "http://www.w3.org/TR/2001/REC-SVG-20010904/DTD/svg10.dtd">
<svg version="1.0" xmlns="http://www.w3.org/2000/svg" width="1078px" height="1078px" viewBox="0 0 10780 10780" preserveAspectRatio="xMidYMid meet">
<g id="layer101" fill="#ffca0e" stroke="none">
 <path d="M7160 9435 l0 -1345 465 0 c436 0 465 1 465 17 0 10 -199 615 -442 1345 -414 1240 -444 1328 -465 1328 l-23 0 0 -1345z m580 -1087 c0 -5 -74 -8 -165 -8 l-165 0 1 498 1 497 164 -490 c90 -269 164 -493 164 -497z"/>
 <path d="M2060 7208 c0 -13 128 -406 283 -873 l284 -850 921 -3 c507 -1 922 1 922 5 0 5 -130 397 -288 873 l-289 865 -916 3 -917 2 0 -22z"/>
 <path d="M4760 7208 c0 -13 128 -406 283 -873 l284 -850 921 -3 c507 -1 922 1 922 5 0 5 -130 397 -288 873 l-289 865 -916 3 -917 2 0 -22z"/>
 <path d="M7460 7208 c0 -13 140 -442 310 -953 171 -511 310 -931 310 -932 0 -2 -1213 -3 -2695 -3 -1482 0 -2695 -3 -2695 -7 0 -5 14 -50 31 -100 l31 -93 3169 0 c1743 0 3169 3 3169 8 0 4 -157 477 -348 1052 l-349 1045 -466 3 -467 2 0 -22z"/>
 <path d="M2802 4968 c3 -7 15 -43 27 -80 l23 -68 3169 0 c1743 0 3169 4 3169 8 0 4 -11 39 -23 78 l-24 69 -3173 3 c-2536 2 -3171 0 -3168 -10z"/>
 <path d="M2906 4658 c4 -13 15 -45 24 -73 l17 -50 3172 -3 3172 -2 -7 22 c-4 13 -15 46 -24 73 l-17 50 -3172 3 -3172 2 7 -22z"/>
 <path d="M0 3598 c0 -22 86 -52 1313 -461 721 -240 1324 -437 1340 -437 23 0 27 4 27 28 0 15 -65 221 -143 457 l-144 430 -1196 3 -1197 2 0 -22z m2250 -374 l48 -142 -412 138 c-226 75 -418 139 -426 143 -8 3 156 5 364 4 l379 -2 47 -141z"/>
 <path d="M3260 3603 c0 -10 93 -296 206 -635 l205 -617 1007 -335 c554 -185 1015 -336 1025 -336 12 0 17 8 17 28 0 15 -141 450 -313 967 l-314 940 -916 3 c-869 2 -917 1 -917 -15z m1857 -878 c117 -352 213 -643 213 -647 0 -3 -327 103 -727 236 l-727 242 -133 400 c-73 219 -133 402 -133 406 0 5 291 7 647 6 l646 -3 214 -640z"/>
 <path d="M5960 3603 c0 -27 741 -2246 754 -2259 14 -15 1994 -674 2024 -674 16 0 22 6 22 23 0 12 -218 675 -483 1472 l-484 1450 -916 3 c-869 2 -917 1 -917 -15z m2026 -1387 c211 -633 382 -1151 381 -1153 -2 -1 -329 106 -728 239 l-725 242 -302 905 c-166 499 -302 910 -302 914 0 4 291 6 647 5 l646 -3 383 -1149z"/>
 <path d="M8660 3603 c0 -10 244 -751 543 -1647 l543 -1630 490 -163 c269 -90 501 -163 516 -163 24 0 28 4 28 28 0 15 -267 828 -593 1807 l-594 1780 -466 3 c-440 2 -467 1 -467 -15z m1240 -1729 l498 -1492 -224 75 -223 74 -470 1412 c-259 777 -471 1415 -471 1420 0 4 89 6 197 5 l196 -3 497 -1491z"/>
 </g>
<g id="layer102" fill="#2874f0" stroke="none">
 <path d="M7460 7208 c0 -13 140 -442 310 -953 171 -511 310 -931 310 -932 0 -2 -1213 -3 -2695 -3 -1482 0 -2695 -3 -2695 -7 0 -5 14 -50 31 -100 l31 -93 3169 0 c1743 0 3169 3 3169 8 0 4 -157 477 -348 1052 l-349 1045 -466 3 -467 2 0 -22z"/>
 <path d="M2802 4968 c3 -7 15 -43 27 -80 l23 -68 3169 0 c1743 0 3169 4 3169 8 0 4 -11 39 -23 78 l-24 69 -3173 3 c-2536 2 -3171 0 -3168 -10z"/>
 <path d="M2906 4658 c4 -13 15 -45 24 -73 l17 -50 3172 -3 3172 -2 -7 22 c-4 13 -15 46 -24 73 l-17 50 -3172 3 -3172 2 7 -22z"/>
 </g>

</svg>